<svg fill="none" viewBox="0 0 20 20" xmlns="http://www.w3.org/2000/svg"><path d="M10 7a2 2 0 1 0 0 4 2 2 0 0 0 0-4ZM7.72 12c-.612 0-1.31.415-1.33 1.197-.013.517.094 1.241.658 1.835.567.596 1.505.968 2.952.968s2.386-.372 2.952-.968c.564-.594.671-1.319.658-1.835-.02-.782-.718-1.197-1.33-1.197H7.72Z" fill="#1db954" class="fill-212121"></path><path d="M9 2a2 2 0 0 0-2 2H5.5A1.5 1.5 0 0 0 4 5.5v11A1.5 1.5 0 0 0 5.5 18h9a1.5 1.5 0 0 0 1.5-1.5v-11A1.5 1.5 0 0 0 14.5 4H13a2 2 0 0 0-2-2H9Zm3.732 3H14.5a.5.5 0 0 1 .5.5v11a.5.5 0 0 1-.5.5h-9a.5.5 0 0 1-.5-.5v-11a.5.5 0 0 1 .5-.5h1.768A2 2 0 0 0 9 6h2a2 2 0 0 0 1.732-1ZM8 4a1 1 0 0 1 1-1h2a1 1 0 1 1 0 2H9a1 1 0 0 1-1-1Z" fill="#1db954" class="fill-212121"></path></svg>